PathFileType	4	(X/Y/Z)	C:/Users/beibeiliu/ov580/test_trc/capture2\sequence.2_training_dense_left.trc
DataRate	CameraRate	NumFrames	NumMarkers	Units	OrigDataRate	OrigDataStartFrame	OrigNumFrames
120	120	13	19	mm	120	196	313
Frame#	Time	ThumbCMC			ThumbMCP			ThumbIP			ThumbTip			IndexMCP			IndexPIP			IndexTip			MiddleMCP			MiddlePIP			MiddleTip			RingMCP			RingPIP			RingTip			PinkyMCP			PinkyPIP			PinkyTip			BackHand1			BackHand2			BackHand3	
		X0	Y0	Z0	X1	Y1	Z1	X2	Y2	Z2	X3	Y3	Z3	X4	Y4	Z4	X5	Y5	Z5	X6	Y6	Z6	X7	Y7	Z7	X8	Y8	Z8	X9	Y9	Z9	X10	Y10	Z10	X11	Y11	Z11	X12	Y12	Z12	X13	Y13	Z13	X14	Y14	Z14	X15	Y15	Z15	X16	Y16	Z16	X17	Y17	Z17	X18	Y18	Z18	
195	1.625	-133.705	9.82323	-39.1627	-119.07	-5.41374	-62.4557	-116.111	-16.228	-90.3491	-124.573	-31.9666	-106.512	-167.234	4.16025	-106.083	-156.992	-20.4288	-128.82	-136.14	-40.2198	-120.14	-177.864	-14.294	-109.603	-162.775	-39.1315	-120.213	-136.308	-46.0335	-90.176	-188.556	-32.2184	-97.2955	-167.651	-54.0229	-106.876	-143.361	-55.6302	-83.1647	-193.872	-42.8709	-84.4126	-174.057	-58.8075	-94.2695	-147.446	-51.4341	-73.7601	-198.184	-5.25562	-48.5824	-191.486	-0.358616	-21.3167	-174.55	17.9353	-43.7986	
196	1.63333	-143.288	7.97937	-43.3019	-125.939	-5.48611	-64.7763	-120.747	-17.3514	-90.8394	-133.197	-36.414	-112.611	-176.967	-1.57713	-108.127	-169.238	-23.5184	-127.502	-143.883	-45.1177	-119.925	-187.013	-20.0114	-106.499	-166.599	-46.1528	-118.55	-138.422	-47.0628	-93.2735	-193.953	-38.5889	-98.4257	-167.692	-55.5366	-107.632	-145.04	-54.9218	-84.946	-198.327	-48.633	-81.8167	-176.652	-64.9791	-93.4108	-150.941	-57.8782	-74.1835	-204.602	-13.7376	-46.7121	-198.943	-5.7556	-18.0828	-179.404	15.898	-41.6073	
197	1.64167	-148.076	9.58267	-46.6429	-132.447	-6.64447	-66.9098	-131.336	-20.7241	-94.1724	-138.317	-38.4899	-112.107	-186.066	-8.39101	-110.305	-174.12	-31.5964	-128.408	-149.758	-46.3969	-122.53	-195.031	-28.7042	-105.549	-172.915	-46.4432	-120.762	-143.083	-50.0582	-94.2222	-199.09	-44.0955	-96.7607	-174.983	-60.3404	-107.036	-150.847	-60.1733	-84.1178	-203.045	-55.3084	-80.2548	-180.606	-70.4136	-91.4849	-153.779	-63.3624	-77.8337	-208.516	-18.81	-46.8722	-200.644	-11.4936	-15.0597	-189.166	8.22912	-44.1278	
198	1.65	-152.991	8.38548	-45.0435	-140.655	-9.51295	-69.1935	-136.026	-21.3248	-92.8635	-146.714	-41.654	-111.281	-193.21	-13.2633	-106.018	-181.22	-32.3114	-130.094	-155.745	-51.2989	-121.957	-200.409	-36.7749	-107.188	-176.58	-56.2691	-116.954	-148.123	-53.5387	-94.7417	-205.685	-51.967	-92.5777	-179.093	-69.4593	-103.432	-154.115	-62.1014	-86.5247	-208.183	-62.0173	-75.2668	-185.027	-77.1149	-89.843	-157.545	-68.2479	-76.522	-215.041	-26.2015	-46.3053	-204.943	-15.7494	-16.5386	-195.167	5.57699	-40.5605	
199	1.65833	-163.548	1.73822	-48.0293	-148.712	-11.5645	-72.9577	-144.711	-25.9339	-98.833	-152.054	-44.2427	-109.481	-202.354	-22.6392	-107.206	-188.787	-39.7898	-127.195	-159.077	-53.0694	-123.086	-205.205	-40.0327	-106.557	-183.857	-59.0479	-116.917	-154.541	-60.1451	-95.1191	-208.244	-56.279	-92.5663	-183.481	-71.3386	-103.583	-156.439	-65.2463	-83.1934	-209.722	-71.6457	-78.1275	-187.491	-80.2656	-88.9304	-160.117	-71.8463	-73.6534	-216.403	-29.6188	-45.7232	-210.063	-21.1201	-14.9302	-201.585	2.93215	-45.4533	
200	1.66667	-168.379	1.98546	-50.1222	-152.751	-10.8697	-74.7523	-147.55	-24.9271	-99.3512	-157.572	-47.1666	-108.659	-207.64	-28.7776	-107.247	-193.637	-43.1867	-127.404	-161.373	-54.3365	-123.296	-210.436	-47.0078	-100.03	-182.064	-61.9209	-117.876	-156.833	-61.7244	-93.3116	-210.102	-59.0469	-89.7876	-186.385	-76.67	-102.76	-157.123	-66.1368	-85.5071	-209.893	-73.1154	-73.477	-185.88	-84.1036	-86.6994	-157.137	-71.7634	-72.9007	-219.323	-36.1534	-39.5802	-212.693	-26.3972	-12.2721	-207.25	-4.31236	-38.5433	
201	1.675	-171.47	2.20393	-51.3894	-151.893	-7.07785	-74.5538	-150.395	-22.3119	-96.999	-156.704	-46.0253	-109.658	-209.912	-32.6007	-103.096	-193.805	-51.1149	-125.633	-166.295	-57.512	-121.321	-211.485	-49.3377	-102.07	-183.477	-66.2871	-115.004	-156.515	-62.7388	-94.2021	-211.719	-69.5533	-89.4596	-182.857	-81.6504	-99.5841	-155.515	-69.5439	-82.4435	-209.925	-79.8642	-72.2682	-181.538	-88.5525	-84.8723	-158.478	-73.6005	-73.1091	-222.338	-41.2082	-41.9707	-212.995	-25.8273	-11.8278	-210.3	-5.72423	-38.7601	
202	1.68333	-174.632	2.53421	-47.7134	-161.672	-12.381	-74.9531	-156.054	-25.1289	-97.6583	-158.035	-47.3073	-111.717	-212.175	-33.4988	-102.158	-197.107	-52.9813	-126.559	-167.999	-60.6581	-119.248	-212.814	-52.9361	-99.1429	-184.308	-68.3878	-115.939	-158.196	-65.6565	-93.5713	-210.496	-69.1665	-88.789	-186.375	-81.5514	-101.243	-157.465	-71.3314	-86.8534	-207.048	-83.3199	-72.583	-184.669	-91.5631	-83.7489	-156.387	-75.9088	-75.157	-221.568	-43.565	-41.7558	-216.374	-28.6688	-13.3277	-212.867	-11.8424	-42.5368	
203	1.69167	-179.027	0.583454	-51.2382	-161.086	-11.9962	-77.5565	-156.077	-26.7405	-100.016	-160.811	-49.1458	-108.337	-214.631	-40.6528	-100.317	-201.29	-55.6341	-124.66	-168.233	-62.4868	-118.311	-213.103	-58.1459	-96.7578	-186.608	-71.1883	-114.653	-158.082	-62.2938	-96.1728	-209.684	-76.5952	-84.1327	-180.266	-83.7505	-99.0091	-153.257	-72.32	-83.0868	-206.515	-84.7267	-66.5978	-180.823	-92.422	-83.1852	-157.378	-77.3857	-77.1846	-222.504	-50.4905	-38.921	-217.601	-35.9098	-8.69809	-214.461	-12.5131	-42.5997	
204	1.7	-183.178	-3.9429	-49.1398	-163.864	-13.1541	-75.784	-157.842	-27.8374	-93.7383	-159.683	-53.4654	-109.159	-214.769	-44.5897	-104.644	-197.862	-63.9633	-120.65	-164.994	-63.2615	-115.967	-212.618	-65.6044	-95.1408	-187.844	-77.3287	-112.202	-157.53	-67.9402	-92.0006	-207.955	-78.1164	-84.2093	-178.445	-87.1694	-97.267	-154.141	-75.8378	-84.7571	-204.192	-88.9834	-64.8249	-178.597	-95.8637	-80.5063	-152.163	-80.016	-74.3752	-222.092	-50.349	-38.0327	-217.154	-35.688	-11.3149	-217.881	-16.918	-39.6228	
205	1.70833	-182.874	-2.36844	-51.767	-163.263	-12.9536	-72.6364	-158.42	-32.4272	-96.3154	-156.542	-52.7695	-109.157	-213.516	-47.8882	-98.8857	-196.113	-64.4618	-122.68	-164.61	-66.971	-115.72	-210.974	-66.9894	-95.81	-184.238	-82.1624	-109.439	-154.371	-67.6217	-90.5789	-204.98	-86.6359	-83.011	-175.168	-92.3435	-94.5287	-152.442	-74.9578	-86.3456	-199.889	-92.4843	-67.5471	-174.28	-97.7123	-77.6878	-151.182	-79.5552	-76.7243	-222.952	-53.6426	-37.0101	-216.936	-41.8569	-7.94233	-218.245	-21.5054	-38.6947	
206	1.71667	-184.922	-6.95011	-51.9784	-164.598	-16.7666	-73.1193	-157.997	-34.2368	-93.8097	-155.265	-57.8987	-109.406	-211.517	-56.543	-97.4066	-190.985	-70.6657	-120.527	-160.382	-68.4748	-114.867	-206.645	-73.1045	-95.4519	-178.964	-86.3737	-106.084	-151.804	-68.8207	-91.9419	-201.495	-89.278	-78.2677	-172.357	-94.1391	-93.144	-147.122	-75.0199	-79.1758	-195.431	-94.8224	-59.9592	-168.903	-98.1484	-75.3117	-146.084	-74.5537	-73.5872	-221.033	-57.5335	-36.6083	-217.008	-43.0278	-6.06858	-217.964	-24.4687	-42.499	
207	1.725	-185.88	-8.48958	-49.5147	-163.38	-17.629	-72.1649	-155.6	-34.2315	-95.3391	-150.697	-55.2539	-107.986	-207.868	-61.1992	-99.2183	-188.553	-74.1808	-117.979	-157.917	-71.5243	-112.106	-201.678	-79.5238	-92.6318	-174.381	-89.0679	-104.768	-145.32	-70.9348	-88.2972	-195.706	-89.9418	-79.7629	-166.973	-98.767	-87.318	-144.681	-76.659	-79.832	-187.574	-101.268	-57.8865	-160.436	-101.436	-69.8817	-140.285	-75.7346	-65.2821	-217.328	-60.7491	-34.5096	-217.494	-45.9603	-9.06054	-217.35	-27.3052	-38.2219	
